<svg width="54" height="40" viewBox="0 0 54 40" fill="none" xmlns="http://www.w3.org/2000/svg">
<g clip-path="url(#clip0_32_399)">
<path d="M12.0726 5.45984L12.2264 39.957H14.5717V39.9948L21.3962 39.957H28.5091L28.7013 0H27.7978H20.3581H2.92204C2.88359 0 2.82592 0 2.78747 0C1.24955 0 0 1.22799 0 2.73937C0 4.25074 1.24955 5.47873 2.78747 5.47873C2.82592 5.47873 2.88359 5.47873 2.92204 5.47873V5.49763L12.0726 5.45984ZM19.3393 34.4971V5.44095H21.3962V34.4971H19.3393ZM53.7885 15.945C53.9231 17.1352 54 18.401 54 19.7234C54 26.7513 51.9623 32.0223 47.8868 35.5551C44.5226 38.5212 40.005 39.9948 34.3531 39.9948H30.4315V34.6294H34.1994C38.4671 34.6294 41.639 33.288 43.7729 30.6053C45.7337 28.1116 46.7334 24.5032 46.7334 19.7801C46.7334 18.401 46.6565 17.1352 46.4834 15.945H53.7885Z" fill="url(#paint0_linear_32_399)"/>
</g>
<defs>
<linearGradient id="paint0_linear_32_399" x1="0" y1="19.9964" x2="53.9904" y2="19.9964" gradientUnits="userSpaceOnUse">
<stop stop-color="#FFF212"/>
<stop offset="1" stop-color="#E8A719"/>
</linearGradient>
<clipPath id="clip0_32_399">
<rect width="54" height="40" fill="white"/>
</clipPath>
</defs>
</svg>
