<svg width="761" height="978" viewBox="0 0 761 978" fill="none" xmlns="http://www.w3.org/2000/svg">
<g clip-path="url(#clip0_32_441)">
<path d="M44.0548 827.581L690.609 831.897L691.07 789.805L691.778 789.813L692.41 667.325L693.807 539.67L-55.0038 528.023L-55.1813 544.239L-56.6427 677.76L-60.0676 990.687C-60.0752 991.377 -60.0865 992.412 -60.0941 993.102C-60.3962 1020.7 -37.6273 1043.38 -9.30207 1043.69C19.0232 1044 42.2829 1021.83 42.585 994.226C42.5926 993.536 42.6039 992.501 42.6114 991.811L42.9655 991.815L44.0548 827.581ZM589.681 703.121L45.1281 697.161L45.5322 660.245L590.085 666.205L589.681 703.121ZM248.755 81.0509C271.088 78.8799 294.826 77.7594 319.61 78.0307C451.323 79.4723 549.707 117.125 615.116 190.993C670.044 251.978 696.774 333.359 695.663 434.793L694.893 505.176L594.339 504.075L595.079 436.453C595.917 359.86 571.401 302.657 521.543 263.81C475.192 228.107 407.761 209.426 319.245 208.458C293.398 208.175 269.661 209.295 247.321 212.156L248.755 81.0509Z" fill="url(#paint0_linear_32_441)"/>
</g>
<defs>
<linearGradient id="paint0_linear_32_441" x1="314.119" y1="1047.23" x2="324.725" y2="78.2592" gradientUnits="userSpaceOnUse">
<stop stop-color="#FFF212"/>
<stop offset="1" stop-color="#E8A719"/>
</linearGradient>
<clipPath id="clip0_32_441">
<rect width="969.202" height="749.7" fill="white" transform="translate(0 969.144) rotate(-89.3729)"/>
</clipPath>
</defs>
</svg>
