<svg width="613" height="792" viewBox="0 0 613 792" fill="none" xmlns="http://www.w3.org/2000/svg">
<g clip-path="url(#clip0_32_429)">
<path d="M577.978 117.628L51.7045 118.03L51.5845 152.293L51.008 152.291L51.2351 251.99L50.871 355.901L660.419 360.845L660.465 347.646L660.846 238.961L661.738 -15.7599C661.74 -16.3216 661.743 -17.1641 661.745 -17.7258C661.824 -40.1929 643.154 -58.5131 620.098 -58.5939C597.041 -58.6747 578.244 -40.4858 578.165 -18.0187C578.163 -17.457 578.16 -16.6145 578.158 -16.0528L577.87 -16.0538L577.978 117.628ZM134.632 222.232L577.894 223.786L577.789 253.835L134.527 252.282L134.632 222.232ZM415.888 726.487C397.724 728.39 378.41 729.445 358.236 729.375C251.023 728.999 170.717 698.948 117.031 639.222C71.9551 589.916 49.7062 523.84 49.9955 441.274L50.1962 383.983L132.047 384.269L131.854 439.314C131.636 501.66 151.936 548.07 192.752 579.387C230.695 608.166 285.691 622.962 357.743 623.215C378.782 623.288 398.096 622.233 416.262 619.769L415.888 726.487Z" fill="url(#paint0_linear_32_429)"/>
</g>
<defs>
<linearGradient id="paint0_linear_32_429" x1="356.835" y1="-59.5163" x2="354.072" y2="729.22" gradientUnits="userSpaceOnUse">
<stop stop-color="white"/>
<stop offset="1" stop-color="white"/>
</linearGradient>
<clipPath id="clip0_32_429">
<rect width="788.881" height="610.218" fill="white" transform="translate(612.978 2.13812) rotate(90.2008)"/>
</clipPath>
</defs>
</svg>
